<svg xmlns="http://www.w3.org/2000/svg" viewBox="0 0 512 512" width="512" height="512">
  <defs>
    <linearGradient id="brand" x1="0.05" y1="0.30" x2="0.95" y2="0.70">
      <stop offset="0" stop-color="#87e5ff"/>
      <stop offset="0.58" stop-color="#b8b1ff"/>
      <stop offset="1" stop-color="#ffd09b"/>
    </linearGradient>
    <linearGradient id="tile" x1="0" y1="0" x2="0" y2="1">
      <stop offset="0" stop-color="#12151c"/>
      <stop offset="1" stop-color="#08090c"/>
    </linearGradient>
    <radialGradient id="glow" cx="256" cy="236" r="228" gradientUnits="userSpaceOnUse">
      <stop offset="0" stop-color="#b8b1ff" stop-opacity="0.40"/>
      <stop offset="0.5" stop-color="#87e5ff" stop-opacity="0.13"/>
      <stop offset="1" stop-color="#87e5ff" stop-opacity="0"/>
    </radialGradient>
    <linearGradient id="edge" x1="0" y1="0" x2="1" y2="1">
      <stop offset="0" stop-color="#87e5ff" stop-opacity="0.55"/>
      <stop offset="0.55" stop-color="#b8b1ff" stop-opacity="0.22"/>
      <stop offset="1" stop-color="#ffd09b" stop-opacity="0.45"/>
    </linearGradient>
  </defs>
  <rect x="0" y="0" width="512" height="512" rx="112" fill="url(#tile)"/>
  <rect x="0" y="0" width="512" height="512" rx="112" fill="url(#glow)"/>
  <g transform="translate(106.500,399.000) scale(0.52,-0.52)">
    <path d="M252 -10Q165 -10 115.0 34.5Q65 79 65 155Q65 232 115.0 276.0Q165 320 250 320H420V375Q420 426 389.5 453.5Q359 481 303 481Q254 481 221.0 460.5Q188 440 183 405H93Q102 476 160.0 518.0Q218 560 305 560Q400 560 455.0 511.0Q510 462 510 378V0H422V105H407L422 120Q422 60 375.5 25.0Q329 -10 252 -10ZM274 61Q338 61 379.0 93.0Q420 125 420 175V253H252Q207 253 181.0 228.0Q155 203 155 160Q155 114 186.5 87.5Q218 61 274 61Z" fill="url(#brand)"/>
  </g>
  <rect x="4" y="4" width="504" height="504" rx="108" fill="none" stroke="url(#edge)" stroke-width="3"/>
</svg>